<svg width="18" height="16" viewBox="0 0 18 16" fill="none" xmlns="http://www.w3.org/2000/svg">
<rect x="1" width="16" height="16" rx="3" fill="url(#paint0_linear_1_5)"/>
<g filter="url(#filter0_d_1_5)">
<path d="M9.03549 8.36364C9.03549 9.1733 8.87806 9.8563 8.56319 10.4126C8.24833 10.9666 7.82337 11.3868 7.28833 11.6733C6.7533 11.9574 6.15671 12.0994 5.49856 12.0994C4.83568 12.0994 4.23672 11.9562 3.70169 11.6697C3.16902 11.3809 2.74525 10.9595 2.43038 10.4055C2.11788 9.8492 1.96163 9.16856 1.96163 8.36364C1.96163 7.55398 2.11788 6.87216 2.43038 6.31818C2.74525 5.76184 3.16902 5.34162 3.70169 5.05753C4.23672 4.77107 4.83568 4.62784 5.49856 4.62784C6.15671 4.62784 6.7533 4.77107 7.28833 5.05753C7.82337 5.34162 8.24833 5.76184 8.56319 6.31818C8.87806 6.87216 9.03549 7.55398 9.03549 8.36364ZM7.00424 8.36364C7.00424 7.92803 6.94624 7.56108 6.83024 7.26278C6.7166 6.96212 6.54733 6.73485 6.32243 6.58097C6.09989 6.42472 5.82527 6.34659 5.49856 6.34659C5.17186 6.34659 4.89605 6.42472 4.67115 6.58097C4.44861 6.73485 4.27934 6.96212 4.16333 7.26278C4.0497 7.56108 3.99288 7.92803 3.99288 8.36364C3.99288 8.79924 4.0497 9.16738 4.16333 9.46804C4.27934 9.76634 4.44861 9.99361 4.67115 10.1499C4.89605 10.3037 5.17186 10.3807 5.49856 10.3807C5.82527 10.3807 6.09989 10.3037 6.32243 10.1499C6.54733 9.99361 6.7166 9.76634 6.83024 9.46804C6.94624 9.16738 7.00424 8.79924 7.00424 8.36364ZM9.79902 12V4.72727H11.7735V7.66761H11.8729L14.0604 4.72727H16.3615L13.9041 7.96591L16.4183 12H14.0604L12.4269 9.27273L11.7735 10.125V12H9.79902Z" fill="#FF69B4"/>
</g>
<defs>
<filter id="filter0_d_1_5" x="0.961639" y="3.62784" width="16.4567" height="9.47159" filterUnits="userSpaceOnUse" color-interpolation-filters="sRGB">
<feFlood flood-opacity="0" result="BackgroundImageFix"/>
<feColorMatrix in="SourceAlpha" type="matrix" values="0 0 0 0 0 0 0 0 0 0 0 0 0 0 0 0 0 0 127 0" result="hardAlpha"/>
<feOffset/>
<feGaussianBlur stdDeviation="0.5"/>
<feComposite in2="hardAlpha" operator="out"/>
<feColorMatrix type="matrix" values="0 0 0 0 1 0 0 0 0 0.411765 0 0 0 0 0.705882 0 0 0 0.5 0"/>
<feBlend mode="normal" in2="BackgroundImageFix" result="effect1_dropShadow_1_5"/>
<feBlend mode="normal" in="SourceGraphic" in2="effect1_dropShadow_1_5" result="shape"/>
</filter>
<linearGradient id="paint0_linear_1_5" x1="9" y1="0" x2="9" y2="16" gradientUnits="userSpaceOnUse">
<stop offset="0.435375" stop-color="#7FFF00"/>
<stop offset="1" stop-color="#7FFF00" stop-opacity="0.66"/>
</linearGradient>
</defs>
</svg>
